<svg xmlns="http://www.w3.org/2000/svg" viewBox="0 0 409.94 244.13"><defs><style>.cls-1{fill:#007dc6;}.cls-2{fill:#f15931;}.cls-3{fill:#f47933;}.cls-4{fill:#008fd5;}.cls-5{fill:#f58233;}.cls-6{fill:#fff;}.cls-7{fill:#f99d34;}.cls-8{fill:none;}</style></defs><title>frontend-rm-pos</title><g id="Ebene_2" data-name="Ebene 2"><g id="Ebene_1-2" data-name="Ebene 1"><path d="M45.93,39.78H62.57v5.46H52.22v10.5h9.67v5.57H52.22V75.4H45.93Z"/><path d="M76.71,62V75.4H70.47V39.78H81a9.48,9.48,0,0,1,6.52,2,7.39,7.39,0,0,1,2.32,5.85v6.09q0,6-4.37,7.59l5.62,14H84.2L79.26,62Zm0-16.85V56.94h3.64a2.76,2.76,0,0,0,3.23-3.23V48.15q0-3-3.23-3Z"/><path d="M98.71,48.15a8.5,8.5,0,0,1,2.55-6.47c1.7-1.62,4.21-2.42,7.54-2.42s5.85.8,7.56,2.42a8.44,8.44,0,0,1,2.58,6.47V67a8.44,8.44,0,0,1-2.58,6.47q-2.56,2.41-7.56,2.42t-7.54-2.42A8.5,8.5,0,0,1,98.71,67Zm14,.31c0-2.36-1.29-3.53-3.88-3.53S105,46.1,105,48.46V66.71q0,3.54,3.87,3.54t3.88-3.54Z"/><path d="M143.48,39.78h6.19V75.4h-6.29q-7.65-19.5-8.74-22.7l-1.2-3.51q0,.11.27,1.92a85.11,85.11,0,0,1,.67,11.7V75.4h-6.13V39.78h6.39q6.6,16.69,7.65,19.65T143.82,64c.33,1.06.53,1.68.6,1.85,0-.14-.09-.8-.26-2a92.3,92.3,0,0,1-.68-11.8Z"/><path d="M176.55,39.78v5.46H170V75.4h-6.29V45.24h-6.61V39.78Z"/><path d="M183.94,39.78H201v5.46H190.18v9.41h9.41v5.46h-9.41v9.83H201V75.4h-17.1Z"/><path d="M224.81,39.78H231V75.4h-6.3Q217.07,55.9,216,52.7l-1.2-3.51c0,.07.09.71.26,1.92a84.92,84.92,0,0,1,.68,11.7V75.4h-6.14V39.78H216q6.6,16.69,7.64,19.65c.69,2,1.21,3.5,1.54,4.55s.52,1.68.59,1.85c0-.14-.08-.8-.26-2a92.43,92.43,0,0,1-.67-11.8Z"/><path d="M240.82,39.78h11.34a9.22,9.22,0,0,1,6.42,2,7.56,7.56,0,0,1,2.26,5.9v19.4q0,8.27-8.37,8.27H240.82Zm13.78,8.16q0-3-3.22-3h-4.32V70h4.32q3.23,0,3.22-3.33Z"/><path d="M50.8,101.45H47.6v9.07H46v-22H50.8a5.25,5.25,0,0,1,3.92,1.35A5,5,0,0,1,56,93.49v3q0,3.5-2.83,4.55l3.46,9.47H54.86l-3.27-9.11A7.12,7.12,0,0,1,50.8,101.45Zm-3.2-1.56h3.2q3.59,0,3.59-3.39v-3Q54.39,90,50.8,90H47.6Z"/><path d="M74,88.54h1.68v22H74v-10H66.27v10H64.62v-22h1.65V99H74Z"/><path d="M84.46,88.54h9.1V90H86.11v8.68h6.5v1.48h-6.5V109h7.45v1.48h-9.1Z"/><path d="M101.19,88.54h1.65v22h-1.65Z"/><path d="M121.28,107.75l-.06-6.67V88.54h1.65v22h-2.18q-6.3-16-7.52-19.14l.06,6.67v12.47h-1.62v-22h2.15Q120.89,106.69,121.28,107.75Z"/><path d="M146.53,88.54v22h-1.59V97.85l.1-6.54-4.91,13.27H138l-4.95-13.27q.13,3.1.14,6.51v12.7h-1.55v-22h2.17L139.07,103l5.25-14.49Z"/><path d="M164.45,110.52,163,104.09h-6.27l-1.48,6.43h-1.72l5.15-22H161l5.14,22ZM157,102.6h5.61l-2.8-12.18Z"/><path d="M173.13,88.54h1.65v22h-1.65Z"/><path d="M193.22,107.75l-.06-6.67V88.54h1.65v22h-2.18q-6.3-16-7.52-19.14l.06,6.67v12.47h-1.62v-22h2.15Q192.83,106.69,193.22,107.75Z"/><polygon points="272.14 85.03 226.21 85.03 203.25 124.8 226.21 164.58 272.14 164.58 295.11 124.8 272.14 85.03"/><polygon class="cls-1" points="341.04 45.25 295.11 45.25 272.14 85.03 295.11 124.8 341.04 124.8 364 85.03 341.04 45.25"/><polygon class="cls-2" points="341.04 124.8 295.11 124.8 272.14 164.58 295.11 204.36 341.04 204.36 364 164.58 341.04 124.8"/><polygon class="cls-3" points="332.8 139.08 303.35 190.08 332.8 190.08 347.52 164.58 332.8 139.08"/><polygon class="cls-4" points="332.8 59.52 303.35 110.53 332.8 110.53 347.52 85.03 332.8 59.52"/><polygon class="cls-5" points="203.25 124.8 157.32 124.8 134.35 164.58 157.32 204.36 203.25 204.36 226.21 164.58 203.25 124.8"/><polygon class="cls-6" points="242.5 102.48 232.62 102.48 219.73 124.8 232.62 147.12 242.5 147.12 229.61 124.8 242.5 102.48"/><polygon class="cls-6" points="255.86 102.48 265.74 102.48 278.63 124.8 265.74 147.12 255.86 147.12 268.75 124.8 255.86 102.48"/><polygon class="cls-7" points="195.01 139.08 165.56 190.08 195.01 190.08 209.73 164.58 195.01 139.08"/><rect class="cls-8" x="45.93" y="39.78" width="318.07" height="164.58" transform="translate(409.94 244.13) rotate(180)"/><rect class="cls-8" width="409.94" height="244.13"/></g></g></svg>