<?xml version="1.0" encoding="UTF-8"?>
<svg width="857px" height="1149px" viewBox="0 0 857 1149" version="1.1" xmlns="http://www.w3.org/2000/svg" xmlns:xlink="http://www.w3.org/1999/xlink">
    <!-- Generator: Sketch 57 (83077) - https://sketch.com -->
    <title>Slice 1</title>
    <desc>Created with Sketch.</desc>
    <g id="Page-1" stroke="none" stroke-width="1" fill="none" fill-rule="evenodd">
        <g id="logo_vector" fill="#3401F9" fill-rule="nonzero">
            <path d="M56.6,880.5 L89.5,932.3 L64.6,932.3 L33.4,881.8 L20.8,881.8 L20.8,932.3 L0.4,932.3 L0.4,808.1 L43.4,808.1 C57.5,808.1 68.3,811.6 76.1,818.7 C83.6,825.7 87.7,834.5 87.7,845.3 C87.7,853.6 85.2,861.1 80.2,867.9 C75,873.9 67.2,878.4 56.6,880.5 L56.6,880.5 Z M60.9,829.2 C57.1,825.4 51.3,823.7 43.6,823.7 L21,823.7 L21,865.7 L43.6,865.7 C51.4,865.7 57.2,863.9 60.9,860.2 C64.7,856.4 66.7,851.4 66.7,844.6 C66.7,838 64.7,833 60.9,829.2 L60.9,829.2 Z M203.4,889.8 L127.8,889.8 C128.3,898.1 131.1,904.6 136.1,909.4 C141.1,914.2 147.4,916.7 155.2,916.7 C166.3,916.7 174,912.2 178.6,902.9 L200.7,902.9 C197.7,911.9 192.4,919.5 184.4,925.3 C176.6,931.1 166.8,934.1 155.2,934.1 C140.9,934.1 129.3,929.6 120.3,920.3 C111.3,911 107,898.7 107,883.4 C107,868.1 111.5,855.8 120.6,846.5 C129.6,837.2 141.5,832.7 155.8,832.7 C170.1,832.7 181.9,837.2 190.7,846 C199.7,854.8 204,866.4 204,880.7 C204.1,883.5 203.9,886.7 203.4,889.8 L203.4,889.8 Z M174.7,856.3 C169.4,851.5 163.1,849 155.6,849 C148.1,849 141.8,851.5 136.8,856.3 C131.8,861.1 128.8,867.6 128,875.7 L182.8,875.7 C182.8,867.6 180,861.1 174.7,856.3 L174.7,856.3 Z M298.1,932 L298.1,913.7 C294.8,919.7 290.1,924.8 284.3,928.3 C278.5,931.8 271.7,933.8 263.9,933.8 C250.8,933.8 239.8,929 230.7,919.5 C221.7,909.9 217.4,897.6 217.4,882.6 C217.4,867.6 221.9,855.5 230.7,846.2 C239.5,836.9 250.6,832.1 263.9,832.1 C271.7,832.1 278.5,833.9 284.5,837.4 C290.5,840.9 295.1,845.4 298.1,851.2 L298.1,833.6 L318.7,833.6 L318.7,932.1 L298.1,932 L298.1,932 Z M289.3,858.6 C283.3,852.6 276.5,849.6 268.2,849.6 C260.2,849.6 253.1,852.6 247.1,858.4 C241.1,864.2 238.3,872.2 238.3,882.3 C238.3,892.4 241.3,900.6 247.1,906.7 C253.1,912.7 259.9,916 268.2,916 C276.2,916 283.3,913 289.3,907 C295.3,901 298.1,892.9 298.1,882.9 C298.1,872.9 295.1,864.6 289.3,858.6 L289.3,858.6 Z M387.1,849 C378.8,849 372,852 367.2,857.8 C362.2,863.6 359.7,871.9 359.7,882.7 C359.7,893.3 362.2,901.5 367.2,907.6 C372.2,913.6 378.8,916.6 387.1,916.6 C398.9,916.6 406.7,911.3 410.5,901 L432.6,901 C429.8,911.1 424.3,919.1 416.5,924.9 C408.7,930.7 398.9,933.7 387.1,933.7 C372.8,933.7 361.2,929.2 352.2,919.9 C343.2,910.6 338.9,898.3 338.9,883 C338.9,867.7 343.4,855.4 352.5,846.1 C361.5,836.8 373.1,832.3 387.4,832.3 C399.2,832.3 409.3,835.1 417.1,840.8 C424.9,846.6 430.2,854.6 432.9,864.9 L410.8,864.9 C406.9,854.3 398.9,849 387.1,849 L387.1,849 Z M479.3,912.6 C481.1,914.1 484.1,915.1 488.1,915.1 L500.7,915.1 L500.7,932.2 L484.6,932.2 C465.5,932.2 456.2,923.2 456.2,904.8 L456.2,850.3 L444.6,850.3 L444.6,833.7 L456.2,833.7 L456.2,809.3 L476.8,809.3 L476.8,833.7 L500.7,833.7 L500.7,850.3 L476.8,850.3 L476.8,904.8 C476.8,908.4 477.6,911.1 479.3,912.6 L479.3,912.6 Z M608.3,915.6 C596.2,926.7 580.4,932.2 560.3,932.2 L519.6,932.2 L519.6,808.1 L560.3,808.1 C580.4,808.1 596.5,813.6 608.3,824.9 C620.4,836.2 626.4,851.3 626.4,870.4 C626.4,889.5 620.3,904.6 608.3,915.6 L608.3,915.6 Z M593.7,836.5 C585.9,828.5 574.9,824.2 560.3,824.2 L539.9,824.2 L539.9,916.4 L560.3,916.4 C574.6,916.4 585.9,912.4 593.7,904.1 C601.5,895.8 605.5,884.5 605.5,870.2 C605.2,855.8 601.5,844.8 593.7,836.5 L593.7,836.5 Z M720.3,932 L720.3,913.7 C717,919.7 712.3,924.8 706.5,928.3 C700.7,931.8 693.9,933.8 686.1,933.8 C673,933.8 662,929 652.9,919.5 C643.9,909.9 639.6,897.6 639.6,882.6 C639.6,867.6 644.1,855.5 652.9,846.2 C661.7,836.9 672.8,832.1 686.1,832.1 C693.9,832.1 700.7,833.9 706.7,837.4 C712.7,840.9 717.3,845.4 720.3,851.2 L720.3,833.6 L740.9,833.6 L740.9,932.1 L720.3,932 L720.3,932 Z M711.5,858.6 C705.5,852.6 698.7,849.6 690.4,849.6 C682.4,849.6 675.3,852.6 669.3,858.4 C663.3,864.2 660.5,872.2 660.5,882.3 C660.5,892.4 663.5,900.6 669.3,906.7 C675.3,912.7 682.1,916 690.4,916 C698.4,916 705.5,913 711.5,907 C717.5,901 720.3,892.9 720.3,882.9 C720.3,872.9 717.6,864.6 711.5,858.6 L711.5,858.6 Z M796.2,978.5 L775.1,978.5 L795.2,930.5 L756.2,833.5 L778.8,833.5 L806.4,908.6 L835.3,833.5 L856.4,833.5 L796.2,978.5 L796.2,978.5 Z M156.9,1143.1 C154.4,1145.4 151.6,1146.6 148.1,1146.6 C144.6,1146.6 141.8,1145.3 139.3,1143.1 C137,1140.8 135.8,1137.8 135.8,1134.3 C135.8,1130.8 137.1,1128 139.3,1125.5 C141.6,1123.2 144.6,1122 148.1,1122 C151.6,1122 154.4,1123.3 156.9,1125.5 C159.2,1127.8 160.4,1130.8 160.4,1134.3 C160.4,1138.1 159.2,1140.8 156.9,1143.1 L156.9,1143.1 Z M270.5,1133.8 C261.7,1143.4 250.6,1148.1 237.6,1148.1 C229.8,1148.1 223,1146.3 217.2,1142.6 C211.4,1139.1 206.6,1134.1 203.1,1128 L203.1,1146.3 L182.7,1146.3 L182.7,1014.1 L203.1,1014.1 L203.1,1065.4 C206.4,1059.6 211.1,1055.1 216.9,1051.6 C222.9,1048.1 229.7,1046.3 237.5,1046.3 C250.8,1046.3 261.9,1051.1 270.7,1060.4 C279.5,1069.7 284,1082 284,1096.8 C283.8,1111.9 279.3,1124.2 270.5,1133.8 L270.5,1133.8 Z M254.2,1073 C248.2,1067.2 241.1,1064.2 233.1,1064.2 C224.8,1064.2 217.8,1067.2 212,1073.2 C206,1079.2 203.2,1087.3 203.2,1097.3 C203.2,1107.4 206.2,1115.4 212,1121.4 C218,1127.4 224.8,1130.4 233.1,1130.4 C241.1,1130.4 248.2,1127.4 254.2,1121.1 C260.2,1115.1 263.2,1106.8 263.2,1096.7 C263,1086.8 259.9,1078.7 254.2,1073 L254.2,1073 Z M393.6,1104.4 L318,1104.4 C318.5,1112.7 321.3,1119.2 326.3,1124 C331.3,1128.8 337.6,1131.3 345.4,1131.3 C356.5,1131.3 364.2,1126.8 368.8,1117.5 L390.9,1117.5 C387.9,1126.5 382.6,1134.1 374.6,1139.9 C366.8,1145.7 357,1148.7 345.4,1148.7 C331.1,1148.7 319.5,1143.9 310.5,1134.9 C301.5,1125.6 297.2,1113.3 297.2,1098 C297.2,1082.7 301.7,1070.4 310.8,1061.1 C319.8,1051.8 331.7,1047.3 346,1047.3 C360.3,1047.3 372.1,1051.8 380.9,1060.6 C389.9,1069.4 394.2,1081 394.2,1095.3 C394.4,1098.1 394.1,1101.4 393.6,1104.4 L393.6,1104.4 Z M365,1071 C359.7,1066.2 353.4,1063.7 345.9,1063.7 C338.4,1063.7 332.1,1066.2 327.1,1071 C322.1,1075.8 319.1,1082.3 318.3,1090.4 L373,1090.4 C373,1082.3 370.3,1075.7 365,1071 L365,1071 Z M459.2,1067.7 C451.2,1067.7 445.1,1069.7 441.1,1073.7 C437.1,1077.7 434.8,1084.8 434.8,1094.8 L434.8,1146.6 L414.4,1146.6 L414.4,1048.1 L434.8,1048.1 L434.8,1065.2 C441.1,1052.6 450.9,1046.4 464.5,1046.4 L464.5,1067.5 L459.2,1067.5 L459.2,1067.7 L459.2,1067.7 Z M483.1,1146.6 L483.1,1014.4 L503.5,1014.4 L503.5,1146.6 L483.1,1146.6 L483.1,1146.6 Z M550,1031.2 C547.5,1033.7 544.5,1035 540.7,1035 C537.2,1035 533.9,1033.7 531.4,1031.2 C528.9,1028.7 527.6,1025.7 527.6,1021.9 C527.6,1018.1 528.9,1015.1 531.4,1012.6 C533.9,1010.1 536.9,1008.8 540.7,1008.8 C544.2,1008.8 547.5,1010.1 550,1012.6 C552.5,1015.1 553.8,1018.1 553.8,1021.9 C553.7,1025.7 552.5,1028.7 550,1031.2 L550,1031.2 Z M551,1146.6 L530.6,1146.6 L530.6,1048.1 L551,1048.1 L551,1146.6 L551,1146.6 Z M647.7,1146.6 L647.7,1091.6 C647.7,1082.8 645.4,1076 641.2,1071.2 C636.7,1066.4 630.6,1064.2 623.1,1064.2 C615.6,1064.2 609.5,1066.5 605,1071.2 C600.5,1076 598.2,1082.8 598.2,1091.6 L598.2,1146.6 L577.8,1146.6 L577.8,1048.1 L598.2,1048.1 L598.2,1063.7 C604.7,1052.1 615.3,1046.6 629.6,1046.6 C640.7,1046.6 650,1050.4 657,1057.7 C664.3,1065 667.8,1075.3 667.8,1088.6 L667.8,1146.7 L647.7,1146.6 L647.7,1146.6 Z" id="Shape"></path>
            <path d="M621.1,511.3 C617.3,512.6 613.5,513.8 609.5,514.8 C610.8,520.5 612.3,525.8 613.3,531.2 C627.5,601.4 616.4,659 582.8,677.9 C555.4,693.3 513.5,682.9 469.2,652.4 L468.9,643.3 L468.3,619.1 C511.4,653.4 550.5,666 569.4,655.3 C578.8,649.9 586.1,637 589.9,617.2 C594,595.2 593,567.1 586.8,536.3 C585.9,531.6 584.6,526.5 583.3,521.5 C557.2,527.5 528.5,531.6 498.3,534.4 C487.9,548.9 477.5,562.7 466.8,575.6 L464.9,510.4 C471.2,510.1 477.2,509.8 483.2,509.5 C493.9,494.1 503.7,478 513.4,462 C522.8,445.6 532,429.3 540.5,412.3 C532,395.6 522.9,379.2 513.4,363.2 C504,347.1 493.9,331.4 483.2,316 C477.2,315.7 470.9,315.1 464.9,314.7 L464.9,313.8 C464.9,307.2 463,300.9 459.9,295.2 C463,291.1 464.9,286.1 464.9,280.4 C464.9,272.8 461.4,266.2 456.1,261.8 L455.2,236.9 C469.7,253 484.2,270.9 498,290.4 C527.6,293.2 555.9,297.6 582.1,303.3 C583,299.2 584,295.1 584.9,291 C598.1,228.4 589.9,180.5 568.8,168.9 C549,157.9 505.8,173.3 459.2,212.7 C457.6,214 456.1,215.5 454.2,217.1 L452.9,183.7 C503,144.7 551.4,129.2 582,146.2 C616.3,165.4 626.1,224 611,296.4 C610.1,300.8 609.1,305.5 607.9,309.9 C614.8,311.8 621.4,314 628,316.2 C695.7,338.9 739.801428,374.8 739.801428,411.6 C740.1,450.2 693.1,488 621.1,511.3 L621.1,511.3 Z M537,474.8 C530.7,485.2 524.4,495.6 517.8,506 C538.6,503.5 558.1,500.3 576.4,496.2 C570.7,478.9 563.8,460.9 555.3,442.4 C549.3,453.4 543.3,464.1 537,474.8 L537,474.8 Z M517.8,318.9 C524.4,329 530.7,339.4 537,349.4 C543.3,359.8 549.3,370.5 554.9,381.2 C562.8,362.9 569.7,345.3 575,328.3 C556.8,324.9 537.6,321.5 517.8,318.9 L517.8,318.9 Z M619.5,341 C613.5,339.1 607.2,336.9 600.9,335.3 C593,359.9 583,385.4 570.4,411.8 C583.6,438.9 594.3,465 602.2,489.6 C605.7,488.7 609.4,487.4 612.6,486.5 L612.6,486.5 C674.6,466.4 713,435.5 713,411.9 C713.3,389.5 677.7,360.5 619.5,341 L619.5,341 Z M397.2,216.6 C348.7,174.7 302.8,158 281.7,170 C261.9,181 254,225.7 266,284.6 C267.3,290.9 268.8,297.2 270.4,303.5 C296.5,297.8 324.5,293.4 354.1,290.9 C368,272 382.1,254.4 396.3,238.3 L395.4,262.2 C390.4,266.6 386.9,273.2 386.9,280.5 C386.9,285.9 388.8,291.2 391.9,295.3 C391.6,295.9 391.3,296.6 391,296.9 C388.2,302.3 386.9,307.9 386.9,313.9 L386.9,314.8 C380.9,315.1 374.6,315.4 368.6,316.1 C357.9,331.5 347.8,347.3 338.1,363.3 L338.1,363.3 C328.7,379.4 319.5,396 311.3,412.7 C319.5,429.4 328.6,446.1 338.1,462.1 C347.9,478.5 357.9,494.2 369,509.6 C374.7,509.9 380.3,510.2 386.3,510.5 L384.4,573.5 C374,561.2 363.9,548.3 354.2,534.8 C323.7,532.3 295.3,528.5 269.5,522.8 C267.9,529.4 266.4,536.3 264.8,543.3 C253.5,600.9 261.7,644 281.5,655.4 C290.9,660.8 306.1,660.4 325.6,653.8 L325.6,653.8 C343.2,647.8 363.1,636.8 382.9,621.4 L382.3,643.8 L382,654.5 C337.6,683.8 295.4,693.5 268,678.1 C235.3,659.8 225.2,606 238.1,538.6 C239.7,531.4 241.2,523.8 243.1,516.6 C237.4,515 231.8,513.1 226.1,511.6 C156.8,488.6 111.2,450.5 111.2,412.4 C111.2,375.6 153.7,340 220.1,317.6 C227.7,315.1 235.2,312.6 243.4,310.4 C241.8,303.8 240.3,296.9 238.7,289.9 C224.8,221.3 234.6,166.2 267.3,147.6 C297.8,130.3 346.6,145.1 397.3,183.8 L397.2,216.6 L397.2,216.6 Z M315.1,349.8 C321.4,339.4 327.7,329 334.3,318.9 C314.5,321.4 295.3,324.6 277.3,328.3 C282.7,345.6 289.6,363.2 297.1,381.5 C303.1,370.9 309.1,360.2 315.1,349.8 L315.1,349.8 Z M334.9,506.6 C328,496.2 321.4,485.8 315.1,475.1 C308.8,464.7 302.8,454 297.2,443.3 C289.3,461.9 282.4,479.8 276.7,497.4 C294.9,501.2 314.4,504 334.9,506.6 L334.9,506.6 Z M251.5,335 C244.3,336.9 237,339.1 229.8,341.6 C172.8,360.8 138.8,389.4 138.8,411.8 C138.8,422.2 146.7,435.1 162.1,448.3 C179.4,462.8 204.6,476 235.4,486.4 C240.4,488 245.8,489.5 250.8,491.1 C258.7,465.9 269.1,439.5 281.7,412.7 C269.7,386 259.4,359.9 251.5,335 L251.5,335 Z M470.6,412.4 C470.6,430.7 459,446.4 442.6,452.7 L442.9,462.5 L447,462.5 C449.8,462.5 451.7,464.7 451.7,467.2 L451.7,472.6 C451.7,475.1 449.5,477.3 447,477.3 L443.5,477.3 L447.3,618 L448.6,646 C442,644.1 434.1,642.9 425.6,642.9 C417.1,642.9 409.2,643.8 402.6,645.7 L403.9,617.7 L407.7,477 L404.6,477 C402.1,477 399.9,474.8 399.9,472.3 L399.9,466.9 C399.9,464.4 402.1,462.2 404.6,462.2 L408.4,462.2 L408.7,452.1 C392.6,445.5 381,430.1 381,411.8 C381,392.6 393.9,376.2 411.5,370.6 L411.8,365.6 L404.2,365.6 C401.7,365.6 399.5,363.4 399.5,360.9 L399.5,355.5 C399.5,353 401.7,350.8 404.2,350.8 L407,350.8 L407,346.7 L407,336.9 L407,328.7 L407,323 L407,314.8 C407,309.1 409.8,304.1 413.9,300.6 L414.5,285.5 L411.4,285.5 C408.9,285.5 407,283.6 407,281.1 C407,278.9 408.9,276.7 411.4,276.7 L414.9,276.7 L425.3,0.9 L435.7,276.7 L439.5,276.7 C442,276.7 443.9,278.6 443.9,281.1 C443.9,283.6 442,285.5 439.5,285.5 L436,285.5 L436.6,300.3 C436.9,300.6 437.5,300.9 437.9,301.2 C441.7,304.3 443.9,309.4 443.9,314.4 L443.9,328.3 L443.9,346.2 L443.9,346.5 L443.9,350.3 L446.7,350.3 C449.5,350.3 451.4,352.5 451.4,355 L451.4,360.4 C451.4,362.9 449.2,365.1 446.7,365.1 L439.1,365.1 L439.4,370.1 C457.7,376.6 470.6,392.9 470.6,412.4 L470.6,412.4 Z" id="Shape"></path>
        </g>
    </g>
</svg>